<svg xmlns="http://www.w3.org/2000/svg" viewBox="0 0 340 340" width="340" height="340">
  <rect x="0" y="0" width="340" height="340" rx="16" ry="16" fill="#3D3D3D"/>

  <g transform="translate(170,170) scale(1.5) translate(-170,-102)"
     fill="none" stroke="#F5E6D8" stroke-width="18" stroke-linecap="round" stroke-linejoin="round">
    <path d="M 132 160 C 122 134 142 110 132 86 C 122 62 140 48 132 44"/>
    <path d="M 170 160 C 160 134 180 110 170 86 C 160 62 178 48 170 44"/>
    <path d="M 208 160 C 198 134 218 110 208 86 C 198 62 216 48 208 44"/>
  </g>

  <g transform="translate(190, 180)" shape-rendering="crispEdges">
    <rect x="0"   y="0"  width="30" height="30" fill="#1A1A1A"/>
    <rect x="90"  y="0"  width="30" height="30" fill="#1A1A1A"/>
    <rect x="15"  y="15" width="15" height="15" fill="#F5A5B8"/>
    <rect x="90"  y="15" width="15" height="15" fill="#F5A5B8"/>
    <rect x="0"   y="30" width="120" height="30" fill="#1A1A1A"/>
    <rect x="30"  y="45" width="15"  height="15" fill="#FFFFFF"/>
    <rect x="75"  y="45" width="15"  height="15" fill="#FFFFFF"/>
    <rect x="0"   y="60" width="120" height="30" fill="#FFFFFF"/>
    <rect x="0"   y="60" width="15" height="15" fill="#1A1A1A"/>
    <rect x="105" y="60" width="15" height="15" fill="#1A1A1A"/>
    <rect x="30"  y="60" width="15" height="15" fill="#0A0A0A"/>
    <rect x="75"  y="60" width="15" height="15" fill="#0A0A0A"/>
    <rect x="30"  y="90" width="60" height="30" fill="#FFFFFF"/>
    <rect x="15"  y="90" width="15" height="15" fill="#1A1A1A"/>
    <rect x="90"  y="90" width="15" height="15" fill="#1A1A1A"/>
    <rect x="52"  y="96" width="16" height="10" fill="#0A0A0A"/>
  </g>
</svg>
